# xmcd CD database file
#
# Track frame offsets:
#	150
#	24899
#	50408
#	78004
#	103163
#	123950
#	129006
#	146692
#	166524
#	191447
#	217111
#	242956
#	251587
#	287280
#	359175
#
# Disc length: 4795 seconds
#
# Revision: 0
# Processed by: cddbd v1.5.1PL0 Copyright (c) Steve Scherf et al.
# Submitted via: CDex 1.51
#
DISCID=ce12b90f
DTITLE=川口　大輔 - Sunshine After Monsoon
DYEAR=2004
DGENRE=JPop
TTITLE0=Memory Lane
TTITLE1=Sun Shower
TTITLE2=Let's Get Together Now
TTITLE3=Into The Storm
TTITLE4=星の呼吸
TTITLE5=interlude (Oct 4th pm)
TTITLE6=Not Alone
TTITLE7=HIGH CRIME
TTITLE8=砂粒みたいに
TTITLE9=WILL (The Ultimate)
TTITLE10=Sundance
TTITLE11=10月4日のテーマ
TTITLE12=I've been searchin' 〜君をさがしてた〜
TTITLE13=data
TTITLE14=data
EXTD=YEAR: 2004
EXTT0=
EXTT1=
EXTT2=
EXTT3=
EXTT4=
EXTT5=
EXTT6=
EXTT7=
EXTT8=
EXTT9=
EXTT10=
EXTT11=
EXTT12=
EXTT13=
EXTT14=
PLAYORDER=
